<svg width="46.000000" height="46.000000" viewBox="0 0 46 46" fill="none" xmlns="http://www.w3.org/2000/svg" xmlns:xlink="http://www.w3.org/1999/xlink">
	<desc>
			Created with Pixso.
	</desc>
	<defs>
		<clipPath id="clip2_115">
			<rect id="fi_15371027" rx="0.000000" width="45.000000" height="45.000000" transform="translate(0.500000 0.500000)" fill="white" fill-opacity="0"/>
		</clipPath>
	</defs>
	<rect id="fi_15371027" rx="0.000000" width="45.000000" height="45.000000" transform="translate(0.500000 0.500000)" fill="#FFFFFF" fill-opacity="0"/>
	<g clip-path="url(#clip2_115)">
		<path id="Vector" d="M37.82 18.39L29.22 16.39L31.76 5.44C32.1 3.99 33.55 3.09 35 3.42L38.35 4.2C39.8 4.54 40.7 5.99 40.37 7.44L37.82 18.39Z" fill="#01ACFD" fill-opacity="1.000000" fill-rule="nonzero"/>
		<path id="Vector" d="M8.17 18.39L16.77 16.39L14.23 5.44C13.89 3.99 12.44 3.09 10.99 3.42L7.64 4.2C6.19 4.54 5.29 5.99 5.62 7.44L8.17 18.39Z" fill="#01ACFD" fill-opacity="1.000000" fill-rule="nonzero"/>
		<path id="Vector" d="M26.48 2.78L19.51 2.78L20.21 8.96e-5L25.78 8.96e-5L26.48 2.78Z" fill="#01ACFD" fill-opacity="1.000000" fill-rule="nonzero"/>
		<path id="Vector" d="M20.21 8.36L17.42 8.36L17.42 2.7C17.42 1.21 18.63 0 20.13 0L20.21 0L20.21 8.36Z" fill="#01ACFD" fill-opacity="1.000000" fill-rule="nonzero"/>
		<path id="Vector" d="M28.57 8.36L25.78 8.36L25.78 0L25.87 0C27.36 0 28.57 1.21 28.57 2.7L28.57 8.36L28.57 8.36Z" fill="#01ACFD" fill-opacity="1.000000" fill-rule="nonzero"/>
		<path id="Vector" d="M39.03 18.07L39.03 34.84L6.96 34.84L6.96 18.07C6.96 17.02 7.11 15.99 7.39 15.03L11.24 13.03L14.7 7.49C15.57 7.21 16.48 7.04 17.42 6.98L17.42 6.98L18.96 7.55L20.21 6.96L27.92 6.96C34.05 6.96 39.03 11.94 39.03 18.07Z" fill="#FEA301" fill-opacity="1.000000" fill-rule="nonzero"/>
		<path id="Vector" d="M22.23 6.96C20.44 7.86 16.12 10.66 16.12 16.69L16.12 34.84L6.96 34.84L6.96 18.07C6.96 11.94 11.94 6.96 18.07 6.96L22.23 6.96Z" fill="#FEA301" fill-opacity="1.000000" fill-rule="nonzero"/>
		<path id="Vector" d="M40.42 33.44L40.42 40.44C40.42 43.51 37.93 45.99 34.87 45.99L11.12 45.99C8.06 45.99 5.57 43.51 5.57 40.44L5.57 33.44C5.57 32.6 5.95 31.84 6.54 31.33C7.02 30.92 7.66 30.66 8.35 30.66L37.64 30.66C39.18 30.66 40.42 31.9 40.42 33.44Z" fill="#FEA301" fill-opacity="1.000000" fill-rule="nonzero"/>
		<path id="Vector" d="M16.2 46L11.12 46C8.06 46 5.57 43.51 5.57 40.44L5.57 33.44C5.57 32.6 5.95 31.84 6.54 31.33L13.5 34.84L13.5 41.92C13.5 43.69 14.47 45.26 16.2 46Z" fill="#FEA301" fill-opacity="1.000000" fill-rule="nonzero"/>
		<path id="Vector" d="M33.52 41.81C31.75 41.81 30.45 40.15 30.88 38.43L32.12 33.45L34.91 33.45L36.15 38.43C36.58 40.15 35.29 41.81 33.52 41.81Z" fill="#495560" fill-opacity="1.000000" fill-rule="nonzero"/>
		<path id="Vector" d="M42.51 33.46C42.51 33.84 42.35 34.19 42.1 34.44C41.85 34.69 41.5 34.84 41.12 34.84L13.5 34.84L10.89 34.4L10.89 29.3L16.12 27.87L36.93 27.87C40.01 27.87 42.51 30.37 42.51 33.46Z" fill="#01ACFD" fill-opacity="1.000000" fill-rule="nonzero"/>
		<path id="Vector" d="M12.5 33.2C12.5 33.94 12.88 34.47 13.5 34.84L4.87 34.84C4.1 34.84 3.48 34.22 3.48 33.46C3.48 31.91 4.1 30.52 5.11 29.51C6.12 28.5 7.52 27.87 9.06 27.87L16.12 27.87C16.12 27.87 12.5 29.36 12.5 33.2Z" fill="#01ACFD" fill-opacity="1.000000" fill-rule="nonzero"/>
		<path id="Vector" d="M25.83 15.33L20.16 15.33C19.42 15.33 18.81 14.73 18.81 13.98L18.81 12.49C18.81 11.75 19.42 11.15 20.16 11.15L25.83 11.15C26.57 11.15 27.18 11.75 27.18 12.49L27.18 13.98C27.18 14.73 26.57 15.33 25.83 15.33Z" fill="#68A2DF" fill-opacity="1.000000" fill-rule="nonzero"/>
		<path id="Vector" d="M18.28 22.44C18.28 23.65 17.04 24.63 15.52 24.63C13.99 24.63 12.76 23.65 12.76 22.44C12.76 21.22 13.99 20.24 15.52 20.24C17.04 20.24 18.28 21.22 18.28 22.44Z" fill="#FFFFFF" fill-opacity="1.000000" fill-rule="evenodd"/>
		<path id="Vector" d="M33.24 22.44C33.24 23.65 32 24.63 30.48 24.63C28.95 24.63 27.72 23.65 27.72 22.44C27.72 21.22 28.95 20.24 30.48 20.24C32 20.24 33.24 21.22 33.24 22.44Z" fill="#FFFFFF" fill-opacity="1.000000" fill-rule="evenodd"/>
		<path id="Vector" d="M25.67 19.79C25.29 19.79 24.98 20.1 24.98 20.48C24.98 20.84 24.69 21.13 24.33 21.13C23.98 21.13 23.69 20.84 23.69 20.48C23.69 20.1 23.38 19.79 23 19.79C22.61 19.79 22.3 20.1 22.3 20.48C22.3 20.84 22.01 21.13 21.66 21.13C21.3 21.13 21.01 20.84 21.01 20.48C21.01 20.1 20.7 19.79 20.32 19.79C19.94 19.79 19.62 20.1 19.62 20.48C19.62 21.6 20.54 22.52 21.66 22.52C22.17 22.52 22.64 22.33 23 22.01C23.35 22.33 23.82 22.52 24.33 22.52C25.45 22.52 26.37 21.6 26.37 20.48C26.37 20.1 26.05 19.79 25.67 19.79Z" fill="#495560" fill-opacity="1.000000" fill-rule="nonzero"/>
		<path id="Vector" d="M18.57 20.08C18.19 20.08 17.88 19.77 17.88 19.39C17.88 19.07 17.62 18.81 17.3 18.81C16.98 18.81 16.72 19.07 16.72 19.39C16.72 19.77 16.41 20.08 16.03 20.08C15.64 20.08 15.33 19.77 15.33 19.39C15.33 18.31 16.21 17.42 17.3 17.42C18.39 17.42 19.27 18.31 19.27 19.39C19.27 19.77 18.96 20.08 18.57 20.08Z" fill="#495560" fill-opacity="1.000000" fill-rule="nonzero"/>
		<path id="Vector" d="M29.96 20.08C29.58 20.08 29.27 19.77 29.27 19.39C29.27 19.07 29.01 18.81 28.69 18.81C28.37 18.81 28.11 19.07 28.11 19.39C28.11 19.77 27.8 20.08 27.42 20.08C27.03 20.08 26.72 19.77 26.72 19.39C26.72 18.31 27.6 17.42 28.69 17.42C29.78 17.42 30.66 18.31 30.66 19.39C30.66 19.77 30.35 20.08 29.96 20.08Z" fill="#495560" fill-opacity="1.000000" fill-rule="nonzero"/>
	</g>
</svg>
