<svg width="62.000000" height="62.000000" viewBox="0 0 62 62" fill="none" xmlns="http://www.w3.org/2000/svg" xmlns:xlink="http://www.w3.org/1999/xlink">
	<desc>
			Created with Pixso.
	</desc>
	<defs>
		<clipPath id="clip2_4">
			<rect id="fi_15371027" rx="0.000000" width="61.000000" height="61.000000" transform="translate(0.500000 0.500000)" fill="white" fill-opacity="0"/>
		</clipPath>
	</defs>
	<rect id="fi_15371027" rx="0.000000" width="61.000000" height="61.000000" transform="translate(0.500000 0.500000)" fill="#FFFFFF" fill-opacity="0"/>
	<g clip-path="url(#clip2_4)">
		<path id="Vector" d="M50.98 24.79L39.38 22.1L42.81 7.33C43.27 5.38 45.22 4.16 47.17 4.62L51.69 5.67C53.64 6.12 54.86 8.07 54.41 10.03L50.98 24.79Z" fill="#01ACFD" fill-opacity="1.000000" fill-rule="nonzero"/>
		<path id="Vector" d="M11.01 24.79L22.61 22.1L19.18 7.33C18.72 5.38 16.77 4.16 14.82 4.62L10.3 5.67C8.35 6.12 7.13 8.07 7.58 10.03L11.01 24.79Z" fill="#01ACFD" fill-opacity="1.000000" fill-rule="nonzero"/>
		<path id="Vector" d="M35.69 3.75L26.3 3.75L27.24 0L34.75 0L35.69 3.75Z" fill="#01ACFD" fill-opacity="1.000000" fill-rule="nonzero"/>
		<path id="Vector" d="M27.24 11.27L23.48 11.27L23.48 3.64C23.48 1.63 25.11 0 27.13 0L27.24 0L27.24 11.27Z" fill="#01ACFD" fill-opacity="1.000000" fill-rule="nonzero"/>
		<path id="Vector" d="M38.51 11.27L34.75 11.27L34.75 0L34.86 0C36.88 0 38.51 1.63 38.51 3.64L38.51 11.27L38.51 11.27Z" fill="#01ACFD" fill-opacity="1.000000" fill-rule="nonzero"/>
		<path id="Vector" d="M52.6 24.36L52.6 46.96L9.39 46.96L9.39 24.36C9.39 22.94 9.59 21.56 9.96 20.26L15.15 17.57L19.82 10.09C20.98 9.72 22.21 9.49 23.48 9.41L23.48 9.41L25.56 10.18L27.24 9.39L37.63 9.39C45.9 9.39 52.6 16.09 52.6 24.36Z" fill="#FEA301" fill-opacity="1.000000" fill-rule="nonzero"/>
		<path id="Vector" d="M29.96 9.39C27.55 10.6 21.73 14.37 21.73 22.5L21.73 46.96L9.39 46.96L9.39 24.36C9.39 16.09 16.09 9.39 24.36 9.39L29.96 9.39Z" fill="#FEA301" fill-opacity="1.000000" fill-rule="nonzero"/>
		<path id="Vector" d="M54.48 45.07L54.48 54.51C54.48 58.64 51.13 61.99 46.99 61.99L15 61.99C10.86 61.99 7.51 58.64 7.51 54.51L7.51 45.07C7.51 43.94 8.01 42.92 8.81 42.23C9.47 41.67 10.32 41.33 11.25 41.33L50.74 41.33C52.8 41.33 54.48 43 54.48 45.07Z" fill="#FEA301" fill-opacity="1.000000" fill-rule="nonzero"/>
		<path id="Vector" d="M21.84 62L15 62C10.86 62 7.51 58.64 7.51 54.51L7.51 45.07C7.51 43.94 8.01 42.92 8.81 42.24L18.19 46.96L18.19 56.51C18.19 58.88 19.5 61.01 21.84 62Z" fill="#FEA301" fill-opacity="1.000000" fill-rule="nonzero"/>
		<path id="Vector" d="M45.17 56.36C42.79 56.36 41.04 54.12 41.62 51.8L43.3 45.09L47.05 45.09L48.73 51.8C49.31 54.12 47.56 56.36 45.17 56.36Z" fill="#495560" fill-opacity="1.000000" fill-rule="nonzero"/>
		<path id="Vector" d="M57.3 45.09C57.3 45.61 57.09 46.08 56.75 46.42C56.41 46.76 55.94 46.96 55.43 46.96L18.19 46.96L14.67 46.37L14.67 39.49L21.73 37.57L49.78 37.57C53.93 37.57 57.3 40.94 57.3 45.09Z" fill="#01ACFD" fill-opacity="1.000000" fill-rule="nonzero"/>
		<path id="Vector" d="M16.85 44.75C16.85 45.74 17.36 46.46 18.19 46.96L6.56 46.96C5.53 46.96 4.69 46.13 4.69 45.09C4.69 43.02 5.53 41.14 6.9 39.77C8.26 38.41 10.14 37.57 12.21 37.57L21.73 37.57C21.73 37.57 16.85 39.57 16.85 44.75Z" fill="#01ACFD" fill-opacity="1.000000" fill-rule="nonzero"/>
		<path id="Vector" d="M34.82 20.66L27.18 20.66C26.17 20.66 25.36 19.85 25.36 18.85L25.36 16.84C25.36 15.84 26.17 15.03 27.18 15.03L34.82 15.03C35.82 15.03 36.63 15.84 36.63 16.84L36.63 18.85C36.63 19.85 35.82 20.66 34.82 20.66Z" fill="#68A2DF" fill-opacity="1.000000" fill-rule="nonzero"/>
		<path id="Vector" d="M24.63 30.24C24.63 31.88 22.97 33.2 20.91 33.2C18.86 33.2 17.19 31.88 17.19 30.24C17.19 28.61 18.86 27.28 20.91 27.28C22.97 27.28 24.63 28.61 24.63 30.24Z" fill="#FFFFFF" fill-opacity="1.000000" fill-rule="evenodd"/>
		<path id="Vector" d="M44.8 30.24C44.8 31.88 43.13 33.2 41.08 33.2C39.02 33.2 37.36 31.88 37.36 30.24C37.36 28.61 39.02 27.28 41.08 27.28C43.13 27.28 44.8 28.61 44.8 30.24Z" fill="#FFFFFF" fill-opacity="1.000000" fill-rule="evenodd"/>
		<path id="Vector" d="M34.6 26.68C34.09 26.68 33.67 27.09 33.67 27.61C33.67 28.09 33.28 28.48 32.8 28.48C32.32 28.48 31.93 28.09 31.93 27.61C31.93 27.09 31.51 26.68 31 26.68C30.48 26.68 30.06 27.09 30.06 27.61C30.06 28.09 29.67 28.48 29.19 28.48C28.71 28.48 28.32 28.09 28.32 27.61C28.32 27.09 27.9 26.68 27.39 26.68C26.87 26.68 26.45 27.09 26.45 27.61C26.45 29.12 27.68 30.35 29.19 30.35C29.88 30.35 30.51 30.09 31 29.67C31.48 30.09 32.11 30.35 32.8 30.35C34.31 30.35 35.54 29.12 35.54 27.61C35.54 27.09 35.12 26.68 34.6 26.68Z" fill="#495560" fill-opacity="1.000000" fill-rule="nonzero"/>
		<path id="Vector" d="M25.04 27.07C24.52 27.07 24.1 26.65 24.1 26.14C24.1 25.71 23.75 25.36 23.32 25.36C22.89 25.36 22.54 25.71 22.54 26.14C22.54 26.65 22.12 27.07 21.6 27.07C21.09 27.07 20.67 26.65 20.67 26.14C20.67 24.67 21.86 23.48 23.32 23.48C24.78 23.48 25.97 24.67 25.97 26.14C25.97 26.65 25.55 27.07 25.04 27.07Z" fill="#495560" fill-opacity="1.000000" fill-rule="nonzero"/>
		<path id="Vector" d="M40.39 27.07C39.87 27.07 39.45 26.65 39.45 26.14C39.45 25.71 39.1 25.36 38.67 25.36C38.24 25.36 37.89 25.71 37.89 26.14C37.89 26.65 37.47 27.07 36.95 27.07C36.44 27.07 36.02 26.65 36.02 26.14C36.02 24.67 37.21 23.48 38.67 23.48C40.13 23.48 41.32 24.67 41.32 26.14C41.32 26.65 40.9 27.07 40.39 27.07Z" fill="#495560" fill-opacity="1.000000" fill-rule="nonzero"/>
	</g>
</svg>
